<?xml version="1.0" encoding="UTF-8"?>
<svg id="Layer_2" data-name="Layer 2" xmlns="http://www.w3.org/2000/svg" viewBox="0 0 2039.92 2039.93">
  <defs>
    <style>
      .cls-1 {
        fill: #f2f2da;
        stroke-width: 0px;
      }
    </style>
  </defs>
  <g id="Instagram">
    <g id="White">
      <path id="White_Instagran_Logo" data-name="White Instagran Logo" class="cls-1" d="M1019.47,2039.93C455.78,2039.6-.58,1582.64,0,1019.1.58,455.36,457.42-.54,1021.21,0c563.46.54,1019.79,458.16,1018.71,1021.59-1.08,563.27-457.41,1018.65-1020.45,1018.33ZM1636.39,1018.47c-.57-.01-1.14-.02-1.71-.03,0-57.16,1.29-114.35-.38-171.46-1.52-52.02-2.53-104.52-10.34-155.81-16.52-108.51-72.09-192.13-170.93-243.75-50.58-26.42-105.48-39.32-162.05-40.67-121.77-2.91-243.6-4.57-365.4-4.54-69.11.02-138.47,1.58-207.28,7.51-92.79,7.99-173.12,44.62-233.81,118.06-52.38,63.39-75.81,138.38-77.42,218.52-3.3,164.87-3.2,329.82-2.75,494.74.11,39.38,3.87,79.38,11.53,117.98,24.22,121.99,93.96,207.04,212.29,249.64,51.08,18.39,104.52,24.05,158.31,24.55,121.82,1.14,243.66,1.46,365.49,1.28,48.1-.07,96.3-.83,144.28-3.93,80.19-5.17,154.75-27.16,217.41-80.57,78.46-66.89,111.94-155.2,116.77-254.92,4.46-92.08,4.19-184.4,6-276.61ZM509.83,1022.29c2.42-92.92,4.16-182.63,7.5-272.29.85-22.83,4.89-45.99,10.76-68.12,24.53-92.44,92.06-151.9,191.52-160.76,80.72-7.19,162.15-8.51,243.28-8.68,110.26-.24,220.56,1.87,330.77,5.44,51.74,1.68,100.91,16.05,142.75,49.02,55.15,43.45,79.62,103.31,82.56,170.58,4.65,106.62,5.99,213.44,6.24,320.19.19,80.66-1.56,161.44-6.09,241.97-3.85,68.4-27.98,129.07-84.66,172.63-40.02,30.75-86.59,45.34-135.77,46.97-111.69,3.7-223.48,5.63-335.24,5.96-75.15.23-150.41-1.61-225.42-6.02-67.27-3.96-127.2-27.28-170.81-82.31-33.1-41.76-47.01-90.9-49.38-142.64-4.2-91.61-5.55-183.36-8.01-271.94ZM701.98,1020.96c1.24,174.82,144.04,315.69,318.97,314.67,175.3-1.03,315.68-143.96,314.67-320.39-.99-173.2-144.24-313.92-318.89-313.26-174.12.66-315.99,144.44-314.75,318.98ZM1347.12,763.76c40.59.34,73.66-31.98,74.53-72.84.86-40.33-31.91-74.07-72.49-74.65-41.46-.59-75.31,32.32-75.44,73.36-.13,40.37,32.96,73.79,73.4,74.13ZM1225.02,1019.02c.17-114.06-92.21-206.51-206.38-206.55-113.14-.04-205.79,92.27-206.17,205.42-.39,114.15,91.8,206.93,205.8,207.13,114.37.2,206.59-91.69,206.76-206Z"/>
    </g>
  </g>
</svg>