<?xml version="1.0" encoding="UTF-8"?>
<svg id="Layer_2" data-name="Layer 2" xmlns="http://www.w3.org/2000/svg" viewBox="0 0 2090.38 2090.38">
  <defs>
    <style>
      .cls-1 {
        fill: #f2f2da;
        stroke-width: 0px;
      }
    </style>
  </defs>
  <g id="Telephone">
    <g id="WHITE">
      <path id="BLACK" class="cls-1" d="M1045.19,0C467.95,0,0,467.95,0,1045.19s467.95,1045.19,1045.19,1045.19,1045.19-467.95,1045.19-1045.19S1622.43,0,1045.19,0ZM1661.19,1488.59c-24.44,110.54-113.99,189.24-246.12,187.81-37.58-14.77-104.41-36-166.95-66.45-379.1-184.54-642.4-482.52-807.18-874.65-39.11-93.08-.44-200.84,94.04-272.56,17.92-13.61,37.69-25.39,58.02-34.81,54.2-25.11,97.73-17.25,134.94,30.55,49.41,63.48,97.5,128.47,140.77,196.41,49.48,77.69,36,137.62-35.69,193.89-55,43.18-64.1,75.78-35.47,140.48,59.41,134.26,150.86,237.71,282.04,301.88,83.5,40.84,125.18,30.35,180.69-45.05,41.89-56.9,78.21-67.74,140.69-36.82,88.98,44.04,167.11,103.94,234.84,177.76,26.53,28.92,33.94,62.89,25.39,101.56Z"/>
    </g>
  </g>
</svg>